<svg xmlns="http://www.w3.org/2000/svg" width="240" height="56" viewBox="16.788 9.6 351.934 72">
  <g stroke-width="0" fill="#40a8c4">
    <path d="M81.6 9.6h-3.228c-8.508 0-16.524 2.76-23.172 7.992C48.552 12.36 40.536 9.6 32.028 9.6H28.8c-6.612 0-12 5.388-12 12V30c0 2.652 2.148 4.8 4.8 4.8s4.8-2.148 4.8-4.8v-8.4c0-1.32 1.08-2.4 2.4-2.4h3.228c6.336 0 12.3 2.052 17.244 5.94 1.68 1.32 3.792 2.052 5.94 2.052s4.248-.732 5.94-2.052c4.944-3.888 10.896-5.94 17.244-5.94h3.228c1.32 0 2.4 1.08 2.4 2.4v42c0 1.32-1.08 2.4-2.4 2.4h-3.228c-7.188 0-14.472 2.364-21.072 6.828a4.805 4.805 0 0 0 5.388 7.956c4.992-3.384 10.416-5.172 15.684-5.172h3.228c6.612 0 12-5.388 12-12V21.6c0-6.612-5.388-12-12-12Z"/>
    <path d="M26.4 81.6a9.55 9.55 0 0 0 5.028-1.428l15.6-9.6C49.848 68.844 51.6 65.7 51.6 62.4s-1.752-6.444-4.572-8.172l-15.6-9.6c-2.904-1.788-6.72-1.872-9.72-.204a9.6 9.6 0 0 0-4.92 8.376V72a9.62 9.62 0 0 0 4.92 8.388 9.7 9.7 0 0 0 4.68 1.212Zm0-28.8L42 62.4 26.4 72z"/>
  </g>
  <path d="M120.97 16.346c-.46 0-.92.046-1.38.046-.69 0-1.518-.138-1.656.782-.46 3.91-.874 8.234-1.334 12.144-.782 6.44-1.518 13.064-2.254 19.504-.092.874-.184 1.702.782 1.886a36 36 0 0 0 3.818.046c.46.046.966.092 1.104-.46.092-.23.092-.46.092-.69.092-1.058 1.472-14.306 2.024-14.306.874 0 3.174 10.764 4.278 14.72.138.552.414.782.966.736 1.15-.092 2.254 0 3.404 0s.92-.736 1.15-1.702c.276-1.058 2.944-13.8 3.588-13.8.736 0 2.254 14.766 2.392 15.088.276.644 1.058.368 1.61.368.828 0 1.61.092 2.668 0 .782-.092 1.564.184 1.61-.828 0-.23-.092-.46-.138-.69-.184-1.15-.414-2.53-.644-3.68-.322-2.392-.782-4.738-1.104-7.13a947 947 0 0 1-1.334-11.316c-.322-3.22-.782-6.854-1.058-10.074-.092-1.058-1.288-.69-2.024-.69h-3.174c-.506 0-.736.966-.828 1.472-.276 1.288-3.45 17.894-4.508 17.894s-4.462-15.18-5.06-18.492c-.138-.736-.644-.966-1.334-.966zm36.641 20.378.046 13.432c0 .506.46.69.828.69h4.232c.782 0 .782-.69.782-1.012 0-4.324 0-8.97.184-13.34 0-.736.092-1.426.46-2.116.414-.69 6.532-14.352 7.222-16.606.092-.322.276-.874-.046-1.15-.552-.506-2.76-.276-4.094-.276-.828 0-1.334.322-1.702 1.15-1.564 3.634-3.174 7.222-4.784 10.856q-.207.483-.552 0c-.506-.828-3.772-8.924-4.278-10.718-.092-.23-.138-.46-.276-.644-.644-.736-1.702-.644-2.576-.644-1.15 0-1.978.046-3.082.046-.736 0-.782.69-.644 1.288.046.23.184.46.276.644 1.748 3.312 6.67 14.26 7.544 16.33.46.966.414 1.012.46 2.07m35.93 13.708c.139.046.553.046.967.046.92 0 1.196-3.312 1.288-4.002.046-.552.184-.598.644-.69 2.3-.276 3.45-.092 5.75-.046.506 0 .782.23.92.644l.322 1.058c.276.782.506 1.748.782 2.53.184.552.23.506.782.506.736 0 3.404 0 4.186-.046 1.058 0 .322-2.162.184-2.53-.414-1.288-.506-2.622-.92-3.91-.184-.552-5.428-25.438-5.658-26.818-.322-.828-.046-.874-.782-.874-1.564 0-3.22.092-4.83 0-.644 0-.598.184-.69.874-.092.644-1.748 7.958-2.392 10.994-.828 3.818-1.564 7.498-2.484 11.27-.322 1.334-2.53 10.948-2.254 10.994.138.092.368.046.552.046 1.15 0 2.208 0 3.634-.046m6.026-10.442h-.966c-1.288 0-1.334 0-1.012-1.334.23-1.012 1.472-6.486 1.748-7.82.046-.092.138-.184.184-.184.092 0 .184.092.23.138.184.552.368 1.932.552 2.484.414 1.748.69 3.22 1.104 5.106.414 1.656.23 1.656-.598 1.656-.414 0-.828-.046-1.242-.046m33.79-18.262c.045-1.518 0-2.76 0-4.232 0-1.702-3.083-1.518-4.187-1.472-4.922.322-9.614 3.45-11.868 7.728a17 17 0 0 0-1.426 3.864c-.782 3.128-.828 6.44-.46 9.614.322 2.99 1.104 5.98 2.944 8.372 3.174 4.186 9.016 5.658 14.03 4.876.23-.046.46-.092.644-.23.138-.092.276-.276.276-.46l.138-2.622c.046-.828 0-.782 0-1.61 0-1.104-2.3-.276-3.726-.276-1.38 0-2.852-.046-4.094-.69-2.208-1.242-3.45-3.726-4.14-6.072-.782-2.53-.966-5.244-.506-7.82.552-3.358 2.162-7.222 5.704-8.372 2.024-.69 4.186-.46 6.21-.23.276.046.46-.138.46-.368m9.778 28.704c.138.046.552.046.966.046.92 0 1.196-3.312 1.288-4.002.046-.552.184-.598.644-.69 2.3-.276 3.45-.092 5.75-.046.506 0 .782.23.92.644l.322 1.058c.276.782.506 1.748.782 2.53.184.552.23.506.782.506.736 0 3.404 0 4.186-.046 1.058 0 .322-2.162.184-2.53-.414-1.288-.506-2.622-.92-3.91-.184-.552-5.428-25.438-5.658-26.818-.322-.828-.046-.874-.782-.874-1.564 0-3.22.092-4.83 0-.644 0-.598.184-.69.874-.092.644-1.748 7.958-2.392 10.994-.828 3.818-1.564 7.498-2.484 11.27-.322 1.334-2.53 10.948-2.254 10.994.138.092.368.046.552.046 1.15 0 2.208 0 3.634-.046m6.026-10.442h-.966c-1.288 0-1.334 0-1.012-1.334.23-1.012 1.472-6.486 1.748-7.82.046-.092.138-.184.184-.184.092 0 .184.092.23.138.184.552.368 1.932.552 2.484.414 1.748.69 3.22 1.104 5.106.414 1.656.23 1.656-.598 1.656-.414 0-.828-.046-1.242-.046m34.985 2.346c.276-.598.506-1.196.736-1.794.506-1.472.598-2.99.736-4.508.276-3.22.184-6.486-.644-9.614-1.012-4.002-3.588-7.682-7.452-9.384-1.748-.782-3.726-.874-5.612-.828-1.978 0-4.002-.092-5.98.092-.552.046-.828.322-.92.828-.092.552-.184 1.104-.184 1.61.092 2.806 0 11.132.092 12.512.046 1.242-.092 2.76-.092 4.002.046 3.082 0 6.21 0 9.292 0 1.288-.046 2.53-.046 3.818 0 1.38-.506 1.978 3.266 1.978 3.358 0 6.854-.276 10.028-1.472 2.944-1.058 4.784-3.772 6.072-6.532m-13.386-4.784v-5.52c0-3.496.092-5.75-.046-8.694v-.552c.046-.966.184-1.012 1.196-1.012 1.334-.046 2.3.276 3.45.736s1.794 1.472 2.392 2.438c1.15 1.886 1.61 3.956 1.702 6.118.046 1.242.092 2.484.092 3.726 0 5.888-3.45 9.982-6.486 9.982-2.024 0-2.346.138-2.346-1.196 0-1.38.092-2.76.092-4.14-.046-.598-.046-1.242-.046-1.886m20.495 3.818h-.046c0 1.15-.046 2.346 0 3.542.046 1.472.138 2.944.23 4.416 0 .506.138.644.598.736.966.23 1.886.276 2.852.276 2.484-.092 4.968.092 7.452 0 1.012-.046 1.472.046 2.484-.138.92-.184 1.242-.69 1.242-2.07-.092-.874-.046-1.242-.046-2.3 0-1.518-1.058-2.024-1.978-1.978-.644.046-3.726-.046-4.968-.046-2.07.046-1.748.322-1.748-1.84 0-1.748.046-4.002.046-5.796 0-.966.092-1.288 1.012-1.288h5.75c.92.138 1.564-.506 1.564-1.472s.092-1.012.092-1.978l-.138-1.38c-.092-.782-.368-1.058-1.15-1.058-.506 0-1.012.046-1.518.092-1.978.138-2.898-.138-4.83 0-.644 0-.736-.092-.782-.69-.184-1.794 0-3.772.184-5.566.046-.736.23-.874.92-.92l6.486-.046c.874-.092 1.15-.046 1.104-.92-.092-1.334.046-2.714-.092-4.048-.092-.736-.322-.874-1.15-.874-1.38.046-1.702.046-3.082.138-1.38.046-6.9.046-8.234.046-1.932 0-2.07-.138-2.116 2.208-.092 1.84-.046 3.726-.046 5.612 0 3.22-.184 14.766-.092 17.342m26.935-25.024c-.46 0-.92.046-1.38.046-.69 0-1.518-.138-1.656.782-.46 3.91-.874 8.234-1.334 12.144-.782 6.44-1.518 13.064-2.254 19.504-.092.874-.184 1.702.782 1.886a36 36 0 0 0 3.818.046c.46.046.966.092 1.104-.46.092-.23.092-.46.092-.69.092-1.058 1.472-14.306 2.024-14.306.874 0 3.174 10.764 4.278 14.72.138.552.414.782.966.736 1.15-.092 2.254 0 3.404 0s.92-.736 1.15-1.702c.276-1.058 2.944-13.8 3.588-13.8.736 0 2.254 14.766 2.392 15.088.276.644 1.058.368 1.61.368.828 0 1.61.092 2.668 0 .782-.092 1.564.184 1.61-.828 0-.23-.092-.46-.138-.69-.184-1.15-.414-2.53-.644-3.68-.322-2.392-.782-4.738-1.104-7.13a947 947 0 0 1-1.334-11.316c-.322-3.22-.782-6.854-1.058-10.074-.092-1.058-1.288-.69-2.024-.69h-3.174c-.506 0-.736.966-.828 1.472-.276 1.288-3.45 17.894-4.508 17.894s-4.462-15.18-5.06-18.492c-.138-.736-.644-.966-1.334-.966zm36.642 20.378.046 13.432c0 .506.46.69.828.69h4.232c.782 0 .782-.69.782-1.012 0-4.324 0-8.97.184-13.34 0-.736.092-1.426.46-2.116.414-.69 6.532-14.352 7.222-16.606.092-.322.276-.874-.046-1.15-.552-.506-2.76-.276-4.094-.276-.828 0-1.334.322-1.702 1.15-1.564 3.634-3.174 7.222-4.784 10.856q-.207.483-.552 0c-.506-.828-3.772-8.924-4.278-10.718-.092-.23-.138-.46-.276-.644-.644-.736-1.702-.644-2.576-.644-1.15 0-1.978.046-3.082.046-.736 0-.782.69-.644 1.288.046.23.184.46.276.644 1.748 3.312 6.67 14.26 7.544 16.33.46.966.414 1.012.46 2.07M140.8 61.568c-.016.992.08 8.24.064 8.768 0 .496 0 .992.016 1.488 0 .08.048.16.128.16 1.12.048 2.224-.048 3.344-.032.368.016.736 0 1.088 0 .352-.016.384-.16.368-.448-.016-.448-.016-.848-.016-1.28-.016-.224-.144-.304-.336-.304-.656.016-1.312-.016-1.968.016-.112.016-.224.016-.336.016-.192-.016-.24-.064-.256-.272v-.24c-.048-1.328.048-2.704.048-4.032-.016-1.12 0-2.128-.016-3.12 0-.432 0-.864-.016-1.28-.016-.256 0-.528-.064-.784-.032-.096-.08-.224-.192-.224h-1.504c-.256 0-.336.176-.352.432zm14.044 7.152h-.016c0 .4-.016.816 0 1.232.016.512.048 1.024.08 1.536 0 .176.048.224.208.256.336.08.656.096.992.096.864-.032 1.728.032 2.592 0 .352-.016.512.016.864-.048.32-.064.432-.24.432-.72-.032-.304-.016-.432-.016-.8 0-.528-.368-.704-.688-.688-.224.016-1.296-.016-1.728-.016-.72.016-.608.112-.608-.64 0-.608.016-1.392.016-2.016 0-.336.032-.448.352-.448h2c.32.048.544-.176.544-.512s.032-.352.032-.688l-.048-.48c-.032-.272-.128-.368-.4-.368-.176 0-.352.016-.528.032-.688.048-1.008-.048-1.68 0-.224 0-.256-.032-.272-.24-.064-.624 0-1.312.064-1.936.016-.256.08-.304.32-.32l2.256-.016c.304-.032.4-.016.384-.32-.032-.464.016-.944-.032-1.408-.032-.256-.112-.304-.4-.304-.48.016-.592.016-1.072.048-.48.016-2.4.016-2.864.016-.672 0-.72-.048-.736.768-.032.64-.016 1.296-.016 1.952 0 1.12-.064 5.136-.032 6.032m15.644 3.152c.048.016.192.016.336.016.32 0 .416-1.152.448-1.392.016-.192.064-.208.224-.24.8-.096 1.2-.032 2-.016.176 0 .272.08.32.224l.112.368c.096.272.176.608.272.88.064.192.08.176.272.176.256 0 1.184 0 1.456-.016.368 0 .112-.752.064-.88-.144-.448-.176-.912-.32-1.36-.064-.192-1.888-8.848-1.968-9.328-.112-.288-.016-.304-.272-.304-.544 0-1.12.032-1.68 0-.224 0-.208.064-.24.304-.032.224-.608 2.768-.832 3.824-.288 1.328-.544 2.608-.864 3.92-.112.464-.88 3.808-.784 3.824.048.032.128.016.192.016.4 0 .768 0 1.264-.016m2.096-3.632h-.336c-.448 0-.464 0-.352-.464.08-.352.512-2.256.608-2.72.016-.032.048-.064.064-.064.032 0 .064.032.08.048.064.192.128.672.192.864.144.608.24 1.12.384 1.776.144.576.08.576-.208.576-.144 0-.288-.016-.432-.016m14.54 2.56c0-.416 0-3.04.016-3.248.016-.048.048-.144.112-.144s.096.032.112.08c.64 1.248 1.2 2.496 1.776 3.712.08.176.256.688.304.736.064.096.176.064.272.064l1.76.016c.208 0 .256-.128.208-.304-.128-.48-1.04-2.176-1.248-2.592-.144-.32-1.104-2.176-1.136-2.32-.032-.064.208-.176.24-.224.768-.688 1.456-1.392 1.6-2.464.16-1.056-.08-2.208-.768-3.056-.528-.624-1.216-.992-2.032-1.04-.496-.032-.976.016-1.472 0-.432-.016-.736-.016-1.28-.016-.256 0-.416.144-.432.416v.192c-.032 1.232 0 2.464.016 3.68 0 1.856-.032 6.752-.032 7.456 0 .208.032.256.224.256.112 0 .24.016.352.016.448 0 .72-.016 1.184-.016.352 0 .224-.576.224-1.2m0-6.24.016-1.616c.016-.24-.064-.72.16-.896.304-.224.928 0 1.2.192.8.544.736 1.888.304 2.64-.208.352-.56.56-.96.672-.24.064-.688.144-.704-.24 0-.256-.016-.752-.016-.752m20.412-4.192c.048.224.016 10.88.016 11.152 0 .48-.176.464-.496.464-.48 0-1.152.08-1.296-.08-.128-.112-2.496-5.824-2.832-6.544-.032-.064-.112-.224-.176-.192-.08.032-.048.144-.048.208-.016.56.08 5.392.08 6.16 0 .384-.016.448-.336.448h-.8c-.208 0-.464-.016-.672.016-.16 0-.24-.048-.256-.208v-1.264c.032-1.344 0-9.312 0-9.904 0-.512.144-.608.656-.608.352-.016.704-.016 1.056-.016.112 0 .176.016.24.16.432 1.008 2.272 5.632 2.56 6.192.048.112.224.56.32.608h.016c.064-.064.048-.384.048-.48 0-.24-.128-5.856-.128-5.968 0-.16-.048-.304.032-.416.048-.064.256-.08.336-.096.448-.032.976.016 1.424 0 .224 0 .208.16.256.368m27.208 8.688c.096-.208.176-.416.256-.624.176-.512.208-1.04.256-1.568.096-1.12.064-2.256-.224-3.344-.352-1.392-1.248-2.672-2.592-3.264-.608-.272-1.296-.304-1.952-.288-.688 0-1.392-.032-2.08.032-.192.016-.288.112-.32.288-.032.192-.064.384-.064.56.032.976 0 3.872.032 4.352.016.432-.032.96-.032 1.392.016 1.072 0 2.16 0 3.232 0 .448-.016.88-.016 1.328 0 .48-.176.688 1.136.688 1.168 0 2.384-.096 3.488-.512 1.024-.368 1.664-1.312 2.112-2.272m-4.656-1.664v-1.92c0-1.216.032-2-.016-3.024v-.192c.016-.336.064-.352.416-.352.464-.016.8.096 1.2.256s.624.512.832.848c.4.656.56 1.376.592 2.128.016.432.032.864.032 1.296 0 2.048-1.2 3.472-2.256 3.472-.704 0-.816.048-.816-.416 0-.48.032-.96.032-1.44-.016-.208-.016-.432-.016-.656m22.668-4.448c.336.992.416 2.064.416 3.12 0 .88-.16 1.728-.384 2.576-.288 1.008-.768 1.92-1.632 2.512-.64.464-1.312.768-2.096.848-.112 0-.208.016-.32.016-.096 0-.192-.016-.304-.016-.784-.08-1.456-.384-2.112-.848-.848-.592-1.344-1.504-1.616-2.512-.24-.848-.384-1.696-.384-2.576 0-1.056.08-2.128.416-3.12.592-1.712 2.224-2.928 4-2.96 1.776.032 3.408 1.248 4.016 2.96m-1.552 4.288c.16-.976.096-1.968-.096-2.944-.192-.88-.576-1.744-1.312-2.272a1.5 1.5 0 0 0-.416-.224c-.208-.096-.432-.128-.64-.128s-.416.032-.624.128c-.16.048-.288.128-.416.224-.752.528-1.136 1.392-1.312 2.272-.192.976-.256 1.968-.096 2.944.16.88.48 2.064 1.312 2.512.352.192.736.32 1.136.336.4-.016.8-.144 1.152-.336.832-.448 1.152-1.632 1.312-2.512m22.424-6c0 .768-.032 9.024 0 9.76.016.176.016.352.016.528 0 .128.08.208.192.256.096.032.224.064.32.064.464-.048.96 0 1.44-.016.832.064 1.584-.128 2.304-.512.672-.384 1.04-1.072 1.296-1.792.208-.608.176-1.328.064-1.952a3.7 3.7 0 0 0-.688-1.552c-.048-.064-.736-.496-.704-.528.416-.592 1.008-1.088 1.088-1.824.064-.64-.08-1.296-.304-1.888-.144-.384-.336-.752-.64-1.04-.512-.48-1.28-.688-1.952-.752-.688-.064-1.328-.016-2.016-.048-.24 0-.352.096-.352.352 0 .336-.064.608-.064.944m1.968 2.912c-.016-.176 0-1.584-.032-2.112-.016-.192.096-.288.304-.24.16.032.288.048.416.144.4.304.704.672.72 1.184 0 .256 0 .512-.096.752-.112.288-.272.512-.56.656-.192.096-.368.208-.56.288-.096.032-.192-.016-.208-.112 0-.192.016-.56.016-.56m1.6 4.24c0 .08-.016.224-.016.368-.016.48-.64 1.088-1.36 1.104-.048 0-.128-.048-.144-.096a1 1 0 0 1-.064-.32c-.016-.496 0-.976 0-1.504.048-.336.016-.688.016-1.04.016-.272.08-.32.336-.368.384-.048.736.112.912.416.208.368.288.768.32 1.184zm11.196.336h-.016c0 .4-.016.816 0 1.232.016.512.048 1.024.08 1.536 0 .176.048.224.208.256.336.08.656.096.992.096.864-.032 1.728.032 2.592 0 .352-.016.512.016.864-.048.32-.064.432-.24.432-.72-.032-.304-.016-.432-.016-.8 0-.528-.368-.704-.688-.688-.224.016-1.296-.016-1.728-.016-.72.016-.608.112-.608-.64 0-.608.016-1.392.016-2.016 0-.336.032-.448.352-.448h2c.32.048.544-.176.544-.512s.032-.352.032-.688l-.048-.48c-.032-.272-.128-.368-.4-.368-.176 0-.352.016-.528.032-.688.048-1.008-.048-1.68 0-.224 0-.256-.032-.272-.24-.064-.624 0-1.312.064-1.936.016-.256.08-.304.32-.32l2.256-.016c.304-.032.4-.016.384-.32-.032-.464.016-.944-.032-1.408-.032-.256-.112-.304-.4-.304-.48.016-.592.016-1.072.048-.48.016-2.4.016-2.864.016-.672 0-.72-.048-.736.768-.032.64-.016 1.296-.016 1.952 0 1.12-.064 5.136-.032 6.032m16.204 1.536c.016.496.016.992.032 1.488 0 .224.016.256.24.256h1.44c.304 0 .24-.512.224-.784l.048-8.96c0-.24.08-.32.4-.32h1.408c.336 0 .256-.576.256-.976 0-.352.128-.96-.256-.96-.272 0-2.88 0-3.952.016-.528 0-.96-.016-1.488-.016-.4 0-.384.32-.384 1.024 0 .448-.016.896.368.896.224 0 1.136 0 1.392.016.16 0 .272.048.304.224 0 .048.016.096.016.144 0 1.152-.08 6.512-.048 7.952m15.116 0c.016.496.016.992.032 1.488 0 .224.016.256.24.256h1.44c.304 0 .24-.512.224-.784l.048-8.96c0-.24.08-.32.4-.32h1.408c.336 0 .256-.576.256-.976 0-.352.128-.96-.256-.96-.272 0-2.88 0-3.952.016-.528 0-.96-.016-1.488-.016-.4 0-.384.32-.384 1.024 0 .448-.016.896.368.896.224 0 1.136 0 1.392.016.16 0 .272.048.304.224 0 .048.016.096.016.144 0 1.152-.08 6.512-.048 7.952m13.1-1.536h-.016c0 .4-.016.816 0 1.232.016.512.048 1.024.08 1.536 0 .176.048.224.208.256.336.08.656.096.992.096.864-.032 1.728.032 2.592 0 .352-.016.512.016.864-.048.32-.064.432-.24.432-.72-.032-.304-.016-.432-.016-.8 0-.528-.368-.704-.688-.688-.224.016-1.296-.016-1.728-.016-.72.016-.608.112-.608-.64 0-.608.016-1.392.016-2.016 0-.336.032-.448.352-.448h2c.32.048.544-.176.544-.512s.032-.352.032-.688l-.048-.48c-.032-.272-.128-.368-.4-.368-.176 0-.352.016-.528.032-.688.048-1.008-.048-1.68 0-.224 0-.256-.032-.272-.24-.064-.624 0-1.312.064-1.936.016-.256.08-.304.32-.32l2.256-.016c.304-.032.4-.016.384-.32-.032-.464.016-.944-.032-1.408-.032-.256-.112-.304-.4-.304-.48.016-.592.016-1.072.048-.48.016-2.4.016-2.864.016-.672 0-.72-.048-.736.768-.032.64-.016 1.296-.016 1.952 0 1.12-.064 5.136-.032 6.032m16.156 2.08c0-.416 0-3.04.016-3.248.016-.048.048-.144.112-.144s.096.032.112.08c.64 1.248 1.2 2.496 1.776 3.712.08.176.256.688.304.736.064.096.176.064.272.064l1.76.016c.208 0 .256-.128.208-.304-.128-.48-1.04-2.176-1.248-2.592-.144-.32-1.104-2.176-1.136-2.32-.032-.064.208-.176.24-.224.768-.688 1.456-1.392 1.6-2.464.16-1.056-.08-2.208-.768-3.056-.528-.624-1.216-.992-2.032-1.04-.496-.032-.976.016-1.472 0-.432-.016-.736-.016-1.28-.016-.256 0-.416.144-.432.416v.192c-.032 1.232 0 2.464.016 3.68 0 1.856-.032 6.752-.032 7.456 0 .208.032.256.224.256.112 0 .24.016.352.016.448 0 .72-.016 1.184-.016.352 0 .224-.576.224-1.2m0-6.24.016-1.616c.016-.24-.064-.72.16-.896.304-.224.928 0 1.2.192.8.544.736 1.888.304 2.64-.208.352-.56.56-.96.672-.24.064-.688.144-.704-.24 0-.256-.016-.752-.016-.752"
        fill="#235784"/>
</svg>
